<svg width="316" height="82" viewBox="0 0 316 82" fill="none" xmlns="http://www.w3.org/2000/svg">
<path d="M129.552 41.1432C129.552 41.2736 129.646 41.3855 129.773 41.4121C134.703 42.441 137.872 46.2497 137.872 51.736C137.872 58.456 133.328 63 126.352 63H107C106.448 63 106 62.5523 106 62V21.12C106 20.5677 106.448 20.12 107 20.12H125.072C132.048 20.12 136.592 24.6 136.592 31.192C136.592 36.223 133.873 39.9563 129.771 40.874C129.644 40.9023 129.552 41.0135 129.552 41.1432ZM122.96 27.224H115.128C114.576 27.224 114.128 27.6717 114.128 28.224V37.04C114.128 37.5923 114.576 38.04 115.128 38.04H122.96C126.288 38.04 128.528 35.992 128.528 32.664C128.528 29.464 126.288 27.224 122.96 27.224ZM124.24 55.896C127.568 55.896 129.808 53.656 129.808 50.2C129.808 46.744 127.568 44.504 124.24 44.504H115.128C114.576 44.504 114.128 44.9517 114.128 45.504V54.896C114.128 55.4483 114.576 55.896 115.128 55.896H124.24Z" fill="black"/>
<path d="M153.31 63C147.806 63 144.158 59.608 144.158 54.424V19.2C144.158 18.6477 144.605 18.2 145.158 18.2H150.838C151.39 18.2 151.838 18.6477 151.838 19.2V52.44C151.838 54.616 153.182 55.896 155.358 55.896H156.15C156.702 55.896 157.15 56.3437 157.15 56.896V62C157.15 62.5523 156.702 63 156.15 63H153.31Z" fill="black"/>
<path d="M175.458 63.768C167.202 63.768 161.697 58.776 161.697 51.16V42.84C161.697 35.224 167.202 30.232 175.458 30.232C183.714 30.232 189.154 35.224 189.154 42.84V51.16C189.154 58.776 183.714 63.768 175.458 63.768ZM175.458 56.664C179.106 56.664 181.474 54.488 181.474 51.16V42.84C181.474 39.512 179.106 37.336 175.458 37.336C171.81 37.336 169.378 39.512 169.378 42.84V51.16C169.378 54.488 171.81 56.664 175.458 56.664Z" fill="black"/>
<path d="M215.166 32C215.166 31.4477 215.613 31 216.166 31H221.846C222.398 31 222.846 31.4477 222.846 32V64.344C222.846 70.872 217.598 75.288 209.278 75.288C201.47 75.288 196.03 71.448 196.03 65.432C196.03 65.1139 196.287 64.856 196.606 64.856H203.262C203.403 64.856 203.518 64.9706 203.518 65.112C203.518 67.672 205.822 69.4 209.214 69.4C212.862 69.4 215.166 67.224 215.166 63.96V57.095C215.166 56.9277 215.03 56.792 214.863 56.792C214.737 56.792 214.624 56.8701 214.576 56.9864C213.296 60.0773 209.895 62.104 205.757 62.104C199.613 62.104 195.39 57.944 195.39 51.608V40.728C195.39 34.456 199.613 30.232 205.757 30.232C210.021 30.232 213.302 32.4431 214.577 35.5416C214.624 35.658 214.737 35.736 214.863 35.736C215.03 35.736 215.166 35.6004 215.166 35.433V32ZM209.021 54.936C212.67 54.936 215.166 52.44 215.166 49.432V42.904C215.166 39.896 212.67 37.4 209.021 37.4C205.438 37.4 203.07 39.64 203.07 42.968V49.368C203.07 52.696 205.438 54.936 209.021 54.936Z" fill="black"/>
<path d="M247.932 30.232H248.02C248.572 30.232 249.02 30.6797 249.02 31.232V37.04C249.02 37.5923 248.572 38.04 248.02 38.04H247.611C242.107 38.04 238.908 41.56 238.908 45.912V62C238.908 62.5523 238.46 63 237.908 63H232.228C231.675 63 231.228 62.5523 231.228 62V32C231.228 31.4477 231.675 31 232.228 31H237.908C238.46 31 238.908 31.4477 238.908 32V36.2756C238.908 36.4371 239.038 36.568 239.2 36.568C239.33 36.568 239.444 36.4813 239.483 36.3571C240.682 32.5162 243.72 30.232 247.932 30.232Z" fill="black"/>
<path d="M266.703 30.232C274.831 30.232 279.951 34.52 279.951 41.048V62C279.951 62.5523 279.503 63 278.951 63H273.591C273.039 63 272.591 62.5523 272.591 62V58.9566C272.591 58.7862 272.453 58.648 272.282 58.648C272.159 58.648 272.048 58.722 271.996 58.8341C270.604 61.8623 267.383 63.768 263.055 63.768C256.655 63.768 252.431 59.992 252.431 54.296C252.431 48.472 256.655 44.632 263.055 44.632H271.271C271.823 44.632 272.271 44.1843 272.271 43.632V41.752C272.271 38.68 270.095 36.696 266.511 36.696C263.439 36.696 261.135 38.232 261.135 40.536C261.135 40.9248 260.82 41.24 260.431 41.24H254.647C254.095 41.24 253.647 40.7923 253.647 40.24V40.088C253.647 34.136 258.959 30.232 266.703 30.232ZM265.743 57.56C269.583 57.56 272.271 55.832 272.271 53.208V51.264C272.271 50.7117 271.823 50.264 271.271 50.264H264.335C261.839 50.264 260.175 51.672 260.175 53.784C260.175 56.088 262.287 57.56 265.743 57.56Z" fill="black"/>
<path d="M289.119 74.52C288.567 74.52 288.119 74.0723 288.119 73.52V69.12C288.119 68.5677 288.567 68.12 289.119 68.12H291.959C293.943 68.12 295.159 67.352 295.735 65.624L296.537 63.6004C296.797 62.944 296.313 62.232 295.607 62.232H295.562C295.131 62.232 294.748 61.9552 294.612 61.5453L284.968 32.3133C284.755 31.6664 285.237 31 285.918 31H292.29C292.738 31 293.131 31.2979 293.252 31.7291L299.509 53.9626C299.586 54.2355 299.835 54.424 300.118 54.424C300.402 54.424 300.652 54.2347 300.728 53.961L306.923 31.7316C307.044 31.2991 307.438 31 307.886 31H313.932C314.614 31 315.096 31.6687 314.88 32.3162L302.967 68.056C301.559 72.408 298.615 74.52 293.815 74.52H289.119Z" fill="black"/>
<path d="M82 26.2771C82 29.3139 80.3798 32.12 77.75 33.6384C72.0835 36.9102 72.0833 45.0893 77.7499 48.3608C80.3799 49.8791 82 52.6852 82 55.722V63C82 73.4934 73.4934 82 63 82H19C8.50659 82 0 73.4934 0 63V19C0 8.50659 8.50659 0 19 0H63C73.4934 0 82 8.50659 82 19V26.2771Z" fill="black"/>
</svg>
